<?xml version="1.0" encoding="UTF-8" standalone="no"?>
<!-- Generator: Gravit.io -->

<svg
   style="isolation:isolate"
   viewBox="0 0 48 48"
   width="48pt"
   height="48pt"
   version="1.1"
   id="svg2"
   sodipodi:docname="obsidian.svg"
   xml:space="preserve"
   inkscape:version="1.3 (0e150ed6c4, 2023-07-21)"
   xmlns:inkscape="http://www.inkscape.org/namespaces/inkscape"
   xmlns:sodipodi="http://sodipodi.sourceforge.net/DTD/sodipodi-0.dtd"
   xmlns:xlink="http://www.w3.org/1999/xlink"
   xmlns="http://www.w3.org/2000/svg"
   xmlns:svg="http://www.w3.org/2000/svg"><defs
     id="defs2"><linearGradient
       id="linearGradient5"
       inkscape:collect="always"><stop
         style="stop-color:#bf616a;stop-opacity:1;"
         offset="0"
         id="stop5" /><stop
         style="stop-color:#d08770;stop-opacity:1;"
         offset="0.5014016"
         id="stop7" /><stop
         style="stop-color:#b48ead;stop-opacity:1;"
         offset="1"
         id="stop6" /></linearGradient><linearGradient
       inkscape:collect="always"
       xlink:href="#linearGradient5"
       id="linearGradient6"
       x1="48.000042"
       y1="399.99998"
       x2="176"
       y2="399.99998"
       gradientUnits="userSpaceOnUse" /></defs><sodipodi:namedview
     id="namedview2"
     pagecolor="#ffffff"
     bordercolor="#000000"
     borderopacity="0.25"
     inkscape:showpageshadow="2"
     inkscape:pageopacity="0.0"
     inkscape:pagecheckerboard="0"
     inkscape:deskcolor="#d1d1d1"
     inkscape:document-units="pt"
     inkscape:zoom="9.0377085"
     inkscape:cx="27.883174"
     inkscape:cy="42.267351"
     inkscape:window-width="1920"
     inkscape:window-height="1018"
     inkscape:window-x="0"
     inkscape:window-y="0"
     inkscape:window-maximized="1"
     inkscape:current-layer="g5" /><linearGradient
     id="_lgradient_38"
     x1="0.6718099850460906"
     y1="0.020570018975650584"
     x2="0.4221494918345081"
     y2="0.9601645064179158"
     gradientTransform="matrix(32.189,0,0,48,7.905,0)"
     gradientUnits="userSpaceOnUse"><stop
       offset="0%"
       stop-opacity="1"
       style="stop-color:#D8DEE9"
       id="stop1" /><stop
       offset="100%"
       stop-opacity="1"
       style="stop-color:#D8DEE9"
       id="stop2" /></linearGradient><path
     d=" M 15.342 14.951 L 12.167 21.835 L 16.61 32.993 L 16.61 32.993 L 16.61 32.993 L 16.61 32.993 L 16.802 19.835 L 16.584 19.112 L 15.342 14.951 Z  M 17.467 11.813 L 27.84 5.703 L 27.82 5.887 L 27.409 9.629 L 18.833 16.387 L 17.789 12.891 L 17.467 11.813 Z  M 30.747 41.866 L 31.925 39.497 L 35.747 16.379 L 35.747 16.379 L 35.001 15.899 L 29.018 12.108 L 19.749 19.406 L 19.749 19.406 L 20.532 21.306 L 30.747 41.866 L 30.747 41.866 Z  M 27.713 42.376 L 19.449 39.581 L 19.449 39.581 L 19.464 38.811 L 19.65 26.139 L 27.713 42.376 L 27.713 42.376 Z  M 33.185 11.273 L 30.579 7.695 L 30.383 9.496 L 33.185 11.273 L 33.185 11.273 L 33.185 11.273 Z  M 40.095 14.106 L 35.696 40.712 L 32.082 48 L 16.232 42.632 L 7.905 21.718 L 13.489 9.61 L 29.819 0 L 40.095 14.106 L 40.095 14.106 L 40.095 14.106 L 40.095 14.106 L 40.095 14.106 Z "
     fill-rule="evenodd"
     fill="url(#_lgradient_38)"
     id="path2" /><g
     id="g5"
     transform="matrix(0,-0.05547055,0.05547055,0,21.159015,49.518284)"><path
       style="fill:none;stroke:#5e81ac;stroke-width:32px;stroke-linecap:round;stroke-linejoin:round;stroke-opacity:1"
       d="m 298.66,213.67 a 42.7,42.7 0 1 1 60.38,0 42.65,42.65 0 0 1 -60.38,0 z"
       id="path5" /><path
       style="fill:none;stroke:#4c566a;stroke-width:32px;stroke-linecap:round;stroke-linejoin:round;stroke-opacity:1"
       d="m 461.81,53.81 a 4.4,4.4 0 0 0 -3.3,-3.39 c -54.38,-13.3 -180,34.09 -248.13,102.17 a 294.9,294.9 0 0 0 -33.09,39.08 c -21,-1.9 -42,-0.3 -59.88,7.5 -50.49,22.2 -65.18,80.18 -69.28,105.07 a 9,9 0 0 0 9.8,10.4 l 81.07,-8.9 a 180.29,180.29 0 0 0 1.1,18.3 18.15,18.15 0 0 0 5.3,11.09 l 31.39,31.39 a 18.15,18.15 0 0 0 11.1,5.3 179.91,179.91 0 0 0 18.19,1.1 l -8.89,81 a 9,9 0 0 0 10.39,9.79 c 24.9,-4 83,-18.69 105.07,-69.17 7.8,-17.9 9.4,-38.79 7.6,-59.69 a 293.91,293.91 0 0 0 39.19,-33.09 c 68.38,-68 115.47,-190.86 102.37,-247.95 z"
       id="path1" /><path
       d="M 109.64,352 A 45.06,45.06 0 0 0 83.29,364.84 C 65.67,382.52 64,448 64,448 c 0,0 65.52,-1.67 83.15,-19.31 A 44.73,44.73 0 0 0 160,402.32"
       style="fill:none;stroke:url(#linearGradient6);stroke-width:32px;stroke-linecap:round;stroke-linejoin:round;stroke-opacity:1"
       id="path2-0" /></g></svg>
