<?xml version="1.0" encoding="UTF-8" standalone="no"?>
<svg
   fill="none"
   viewBox="0 0 32 32"
   version="1.1"
   id="svg4"
   sodipodi:docname="obsidian-lockup-help.svg"
   inkscape:version="1.3 (0e150ed6c4, 2023-07-21)"
   width="32"
   height="32"
   xmlns:inkscape="http://www.inkscape.org/namespaces/inkscape"
   xmlns:sodipodi="http://sodipodi.sourceforge.net/DTD/sodipodi-0.dtd"
   xmlns:xlink="http://www.w3.org/1999/xlink"
   xmlns="http://www.w3.org/2000/svg"
   xmlns:svg="http://www.w3.org/2000/svg">
  <defs
     id="defs4">
    <linearGradient
       id="linearGradient5"
       inkscape:collect="always">
      <stop
         style="stop-color:#a079ff;stop-opacity:1;"
         offset="0.35949349"
         id="stop5" />
      <stop
         style="stop-color:#a17aff;stop-opacity:0;"
         offset="1"
         id="stop6" />
    </linearGradient>
    <linearGradient
       inkscape:collect="always"
       xlink:href="#linearGradient5"
       id="linearGradient6"
       x1="0.21641523"
       y1="0.25229648"
       x2="19.261723"
       y2="24.856102"
       gradientUnits="userSpaceOnUse" />
    <linearGradient
       inkscape:collect="always"
       xlink:href="#linearGradient5"
       id="linearGradient1"
       gradientUnits="userSpaceOnUse"
       x1="0.21641523"
       y1="0.25229648"
       x2="19.261723"
       y2="24.856102" />
    <linearGradient
       inkscape:collect="always"
       xlink:href="#linearGradient5"
       id="linearGradient2"
       gradientUnits="userSpaceOnUse"
       x1="0.21641523"
       y1="0.25229648"
       x2="19.261723"
       y2="24.856102" />
    <linearGradient
       inkscape:collect="always"
       xlink:href="#linearGradient5"
       id="linearGradient3"
       gradientUnits="userSpaceOnUse"
       x1="0.21641523"
       y1="0.25229648"
       x2="19.261723"
       y2="24.856102" />
  </defs>
  <sodipodi:namedview
     id="namedview4"
     pagecolor="#ffffff"
     bordercolor="#000000"
     borderopacity="0.25"
     inkscape:showpageshadow="2"
     inkscape:pageopacity="0.0"
     inkscape:pagecheckerboard="0"
     inkscape:deskcolor="#d1d1d1"
     inkscape:zoom="32"
     inkscape:cx="20.578125"
     inkscape:cy="13.46875"
     inkscape:window-width="1920"
     inkscape:window-height="1018"
     inkscape:window-x="0"
     inkscape:window-y="0"
     inkscape:window-maximized="1"
     inkscape:current-layer="svg4" />
  <g
     id="g4"
     style="fill:url(#linearGradient6);fill-opacity:1"
     transform="matrix(1.2799981,0,0,1.2799981,3.4953038,-0.00129202)">
    <path
       fill="#A079FF"
       d="M 6.92,14.6 C 7.56,14.4 8.59,14.11 9.78,14.04 9.07,12.24 8.89,10.67 9.03,9.27 9.19,7.65 9.76,6.3 10.32,5.16 l 0.34,-0.7 c 0.16,-0.3 0.3,-0.6 0.44,-0.9 0.22,-0.48 0.4,-0.91 0.48,-1.32 0.08,-0.4 0.08,-0.74 -0.02,-1.08 -0.1,-0.34 -0.3,-0.7 -0.7,-1.1 A 1.67,1.67 0 0 0 9.32,0.43 L 4.16,5.07 C 3.87,5.32 3.68,5.67 3.63,6.06 L 3.18,9 a 14.57,14.57 0 0 1 3.74,5.59 z M 2.97,10.35 c -0.02,0.1 -0.06,0.2 -0.1,0.3 L 0.15,16.73 C -0.13,17.35 0,18.08 0.47,18.57 L 4.76,23 a 8.66,8.66 0 0 0 0.87,-8.65 c -0.76,-1.8 -1.9,-3.2 -2.66,-3.99 z"
       id="path1"
       style="fill:url(#linearGradient1);fill-opacity:1" />
    <path
       fill="#A079FF"
       d="m 5.75,23.5 a 57.83,57.83 0 0 1 7.7,1.43 c 1.13,0.33 2.29,-0.57 2.45,-1.73 0.12,-0.85 0.34,-1.81 0.76,-2.69 h -0.01 a 9.25,9.25 0 0 0 -2.52,-4 5.52,5.52 0 0 0 -2.9,-1.31 c -1.6,-0.23 -3.07,0.2 -4,0.47 a 9.65,9.65 0 0 1 -1.48,7.84 z"
       id="path2"
       style="fill:url(#linearGradient2);fill-opacity:1" />
    <path
       fill="#A079FF"
       d="m 17.37,19.31 c 0.93,-1.4 1.59,-2.49 1.94,-3.08 A 0.84,0.84 0 0 0 19.24,15.3 18.12,18.12 0 0 1 17.11,11.8 c -0.57,-1.38 -0.66,-3.52 -0.66,-4.57 0,-0.4 -0.13,-0.78 -0.37,-1.1 L 12.74,1.91 c 0,0.19 -0.04,0.38 -0.07,0.56 a 7.47,7.47 0 0 1 -0.56,1.57 l -0.47,0.95 -0.32,0.65 a 10.93,10.93 0 0 0 -1.18,3.74 9.17,9.17 0 0 0 0.85,4.67 l 0.4,0.05 c 1.15,0.16 2.36,0.6 3.47,1.56 0.95,0.83 1.81,2 2.51,3.65 z"
       id="path3"
       style="fill:url(#linearGradient3);fill-opacity:1" />
  </g>
</svg>
