<?xml version="1.0" encoding="UTF-8" standalone="no"?>
<!-- Generator: Gravit.io -->

<svg
   style="isolation:isolate"
   viewBox="0 0 48 48"
   width="48pt"
   height="48pt"
   version="1.1"
   id="svg2"
   sodipodi:docname="obsidian-evergreen.svg"
   xml:space="preserve"
   inkscape:version="1.3 (0e150ed6c4, 2023-07-21)"
   xmlns:inkscape="http://www.inkscape.org/namespaces/inkscape"
   xmlns:sodipodi="http://sodipodi.sourceforge.net/DTD/sodipodi-0.dtd"
   xmlns:xlink="http://www.w3.org/1999/xlink"
   xmlns="http://www.w3.org/2000/svg"
   xmlns:svg="http://www.w3.org/2000/svg"><defs
     id="defs2"><linearGradient
       id="linearGradient1"
       inkscape:collect="always"><stop
         style="stop-color:#2e3440;stop-opacity:1;"
         offset="0"
         id="stop3" /><stop
         style="stop-color:#343b49;stop-opacity:1;"
         offset="0.23466854"
         id="stop8" /><stop
         style="stop-color:#3b4353;stop-opacity:1;"
         offset="0.42153296"
         id="stop9" /><stop
         style="stop-color:#4c566a;stop-opacity:1;"
         offset="0.73373926"
         id="stop4" /></linearGradient><linearGradient
       id="linearGradient5"
       inkscape:collect="always"><stop
         style="stop-color:#bf616a;stop-opacity:1;"
         offset="0"
         id="stop5" /><stop
         style="stop-color:#d08770;stop-opacity:1;"
         offset="0.5014016"
         id="stop7" /><stop
         style="stop-color:#b48ead;stop-opacity:1;"
         offset="1"
         id="stop6" /></linearGradient><linearGradient
       inkscape:collect="always"
       xlink:href="#linearGradient5"
       id="linearGradient6"
       x1="48.000042"
       y1="399.99998"
       x2="176"
       y2="399.99998"
       gradientUnits="userSpaceOnUse"
       gradientTransform="matrix(0.0480389,-0.02773528,0.02773528,0.0480389,7.5201615,19.904638)" /><linearGradient
       inkscape:collect="always"
       xlink:href="#linearGradient1"
       id="linearGradient4"
       x1="48.012941"
       y1="256.00178"
       x2="464.00133"
       y2="256.00178"
       gradientUnits="userSpaceOnUse"
       gradientTransform="matrix(0.0480389,-0.02773528,0.02773528,0.0480389,7.5201615,19.904638)" /></defs><sodipodi:namedview
     id="namedview2"
     pagecolor="#ffffff"
     bordercolor="#000000"
     borderopacity="0.25"
     inkscape:showpageshadow="2"
     inkscape:pageopacity="0.0"
     inkscape:pagecheckerboard="0"
     inkscape:deskcolor="#d1d1d1"
     inkscape:document-units="pt"
     inkscape:zoom="9.0377085"
     inkscape:cx="36.51368"
     inkscape:cy="42.267351"
     inkscape:window-width="1920"
     inkscape:window-height="1018"
     inkscape:window-x="0"
     inkscape:window-y="0"
     inkscape:window-maximized="1"
     inkscape:current-layer="svg2" /><linearGradient
     id="_lgradient_38"
     x1="0.6718099850460906"
     y1="0.020570018975650584"
     x2="0.4221494918345081"
     y2="0.9601645064179158"
     gradientTransform="matrix(32.189,0,0,48,7.905,0)"
     gradientUnits="userSpaceOnUse"><stop
       offset="0"
       stop-opacity="1"
       style="stop-color:#5e81ac;stop-opacity:1;"
       id="stop1" /><stop
       offset="1"
       stop-opacity="1"
       style="stop-color:#81a1c1;stop-opacity:1;"
       id="stop2" /></linearGradient><path
     d=" M 15.342 14.951 L 12.167 21.835 L 16.61 32.993 L 16.61 32.993 L 16.61 32.993 L 16.61 32.993 L 16.802 19.835 L 16.584 19.112 L 15.342 14.951 Z  M 17.467 11.813 L 27.84 5.703 L 27.82 5.887 L 27.409 9.629 L 18.833 16.387 L 17.789 12.891 L 17.467 11.813 Z  M 30.747 41.866 L 31.925 39.497 L 35.747 16.379 L 35.747 16.379 L 35.001 15.899 L 29.018 12.108 L 19.749 19.406 L 19.749 19.406 L 20.532 21.306 L 30.747 41.866 L 30.747 41.866 Z  M 27.713 42.376 L 19.449 39.581 L 19.449 39.581 L 19.464 38.811 L 19.65 26.139 L 27.713 42.376 L 27.713 42.376 Z  M 33.185 11.273 L 30.579 7.695 L 30.383 9.496 L 33.185 11.273 L 33.185 11.273 L 33.185 11.273 Z  M 40.095 14.106 L 35.696 40.712 L 32.082 48 L 16.232 42.632 L 7.905 21.718 L 13.489 9.61 L 29.819 0 L 40.095 14.106 L 40.095 14.106 L 40.095 14.106 L 40.095 14.106 L 40.095 14.106 Z "
     fill-rule="evenodd"
     fill="url(#_lgradient_38)"
     id="path2"
     style="isolation:isolate" /><g
     id="g9"
     transform="matrix(0.89096974,-0.51440162,0.51440162,0.89096974,-9.159476,15.331022)"><path
       id="path1"
       style="isolation:isolate;fill:url(#linearGradient4);fill-opacity:1;stroke:none;stroke-width:1.77506px;stroke-linecap:round;stroke-linejoin:round;stroke-opacity:1"
       d="m 31.08195,9.6085315 a 0.24407041,0.24407041 0 0 0 -0.137229,0.00133 c -2.981231,0.8693258 -7.70125,6.6303228 -9.08592,11.7904108 a 16.358265,16.358265 0 0 0 -0.505886,2.795547 c -1.061513,0.491166 -2.026442,1.14954 -2.669042,2.020149 -1.809758,2.466816 -0.906579,5.659769 -0.413208,6.969171 a 0.49923493,0.49923493 0 0 0 0.759452,0.228025 l 3.648068,-2.676475 a 10.000785,10.000785 0 0 0 0.558889,0.848787 1.0067904,1.0067904 0 0 0 0.563069,0.38592 l 2.378174,0.636482 a 1.0067904,1.0067904 0 0 0 0.679995,-0.05296 9.9797062,9.9797062 45 0 0 0.90482,-0.45091 l 1.819693,4.138222 a 0.49923493,0.49923493 0 0 0 0.769903,0.181447 c 1.085227,-0.882763 3.469372,-3.200638 3.129514,-6.237757 -0.121758,-1.07623 -0.624573,-2.124081 -1.290709,-3.07817 a 16.303349,16.303349 0 0 0 0.965064,-2.676766 c 1.3989,-5.163173 0.253595,-12.369976 -1.95912,-14.7491822 A 0.24407041,0.24407041 0 0 0 31.08195,9.6085315 Z m -1.525288,7.9186005 a 2.3685924,2.3685924 45 0 1 1.137052,2.683653 2.3658189,2.3658189 0 0 1 -2.90027,1.674561 2.3685924,2.3685924 45 1 1 1.763218,-4.358214 z" /><path
       d="m 22.549965,33.773435 a 2.4995029,2.4995029 0 0 0 -0.909704,1.347644 c -0.356086,1.338023 1.379796,4.529928 1.379796,4.529928 0,0 3.10119,-1.89744 3.458866,-3.233819 a 2.4811976,2.4811976 0 0 0 -0.11408,-1.623185"
       style="isolation:isolate;fill:none;stroke:url(#linearGradient6);stroke-width:1.77506px;stroke-linecap:round;stroke-linejoin:round;stroke-opacity:1"
       id="path2-0" /></g></svg>
