<?xml version="1.0" encoding="UTF-8" standalone="no"?>
<!-- Generator: Gravit.io -->

<svg
   style="isolation:isolate"
   viewBox="0 0 48 48"
   width="48pt"
   height="48pt"
   version="1.1"
   id="svg2"
   sodipodi:docname="obsidian (copy).svg"
   inkscape:version="1.3 (0e150ed6c4, 2023-07-21)"
   xmlns:inkscape="http://www.inkscape.org/namespaces/inkscape"
   xmlns:sodipodi="http://sodipodi.sourceforge.net/DTD/sodipodi-0.dtd"
   xmlns="http://www.w3.org/2000/svg"
   xmlns:svg="http://www.w3.org/2000/svg">
  <defs
     id="defs2" />
  <sodipodi:namedview
     id="namedview2"
     pagecolor="#ffffff"
     bordercolor="#000000"
     borderopacity="0.25"
     inkscape:showpageshadow="2"
     inkscape:pageopacity="0.0"
     inkscape:pagecheckerboard="0"
     inkscape:deskcolor="#d1d1d1"
     inkscape:document-units="pt"
     inkscape:zoom="9.0377085"
     inkscape:cx="20.801733"
     inkscape:cy="28.657707"
     inkscape:window-width="1920"
     inkscape:window-height="1018"
     inkscape:window-x="0"
     inkscape:window-y="0"
     inkscape:window-maximized="1"
     inkscape:current-layer="svg2" />
  <linearGradient
     id="_lgradient_38"
     x1="0.6718099850460906"
     y1="0.020570018975650584"
     x2="0.4221494918345081"
     y2="0.9601645064179158"
     gradientTransform="matrix(32.189,0,0,48,7.905,0)"
     gradientUnits="userSpaceOnUse">
    <stop
       offset="0%"
       stop-opacity="1"
       style="stop-color:#D8DEE9"
       id="stop1" />
    <stop
       offset="100%"
       stop-opacity="1"
       style="stop-color:#D8DEE9"
       id="stop2" />
  </linearGradient>
  <g
     id="g145"
     style="isolation:isolate"
     transform="translate(-0.2020321,0.27315924)">
    <path
       id="rect1"
       style="isolation:isolate;fill:#bf616a;stroke:#eceff4;stroke-width:1.16975;stroke-opacity:1"
       d="m 27.650391,13.185059 -7.901368,6.221191 0.783692,1.899902 5.263183,10.595215 h 7.384278 l 2.566406,-15.522949 -0.745605,-0.479004 -4.283204,-2.714355 z m -12.309082,1.766601 -3.174317,6.883301 4.007813,10.066406 h 0.451172 l 0.175781,-12.065918 -0.218262,-0.723633 z"
       sodipodi:nodetypes="cccccccccccccccc" />
    <path
       d="m 11.646829,22.543167 h 25.73451 M 21.004832,13.185164 v 18.716007"
       stroke="#ffffff"
       stroke-width="4.67899"
       id="path1"
       style="isolation:isolate;stroke:#eceff4;stroke-opacity:1" />
    <path
       d="m 11.646829,22.543167 h 25.73451 M 21.004832,13.185164 v 18.716007"
       stroke="#00205b"
       stroke-width="2.3395"
       id="path2-6"
       style="isolation:isolate;stroke:#5e81ac;stroke-opacity:1" />
  </g>
  <path
     d=" M 15.342 14.951 L 12.167 21.835 L 16.61 32.993 L 16.61 32.993 L 16.61 32.993 L 16.61 32.993 L 16.802 19.835 L 16.584 19.112 L 15.342 14.951 Z  M 17.467 11.813 L 27.84 5.703 L 27.82 5.887 L 27.409 9.629 L 18.833 16.387 L 17.789 12.891 L 17.467 11.813 Z  M 30.747 41.866 L 31.925 39.497 L 35.747 16.379 L 35.747 16.379 L 35.001 15.899 L 29.018 12.108 L 19.749 19.406 L 19.749 19.406 L 20.532 21.306 L 30.747 41.866 L 30.747 41.866 Z  M 27.713 42.376 L 19.449 39.581 L 19.449 39.581 L 19.464 38.811 L 19.65 26.139 L 27.713 42.376 L 27.713 42.376 Z  M 33.185 11.273 L 30.579 7.695 L 30.383 9.496 L 33.185 11.273 L 33.185 11.273 L 33.185 11.273 Z  M 40.095 14.106 L 35.696 40.712 L 32.082 48 L 16.232 42.632 L 7.905 21.718 L 13.489 9.61 L 29.819 0 L 40.095 14.106 L 40.095 14.106 L 40.095 14.106 L 40.095 14.106 L 40.095 14.106 Z "
     fill-rule="evenodd"
     fill="url(#_lgradient_38)"
     id="path2" />
</svg>
