<?xml version="1.0" encoding="UTF-8" standalone="no"?>
<!-- Created with Inkscape (http://www.inkscape.org/) -->

<svg
   width="77.727982mm"
   height="78.908806mm"
   viewBox="0 0 77.727982 78.908806"
   version="1.1"
   id="svg5"
   xml:space="preserve"
   inkscape:version="1.2 (dc2aedaf03, 2022-05-15)"
   sodipodi:docname="sourcegraph.svg"
   xmlns:inkscape="http://www.inkscape.org/namespaces/inkscape"
   xmlns:sodipodi="http://sodipodi.sourceforge.net/DTD/sodipodi-0.dtd"
   xmlns:xlink="http://www.w3.org/1999/xlink"
   xmlns="http://www.w3.org/2000/svg"
   xmlns:svg="http://www.w3.org/2000/svg"><sodipodi:namedview
     id="namedview7"
     pagecolor="#ffffff"
     bordercolor="#000000"
     borderopacity="0.25"
     inkscape:showpageshadow="2"
     inkscape:pageopacity="0.0"
     inkscape:pagecheckerboard="0"
     inkscape:deskcolor="#d1d1d1"
     inkscape:document-units="mm"
     showgrid="false"
     inkscape:zoom="0.75277076"
     inkscape:cx="326.79271"
     inkscape:cy="558.60299"
     inkscape:window-width="1920"
     inkscape:window-height="1018"
     inkscape:window-x="0"
     inkscape:window-y="0"
     inkscape:window-maximized="1"
     inkscape:current-layer="layer1" /><defs
     id="defs2"><linearGradient
       id="linearGradient6399">
         <stop
         style="stop-color:#BF616A;stop-opacity:0.78;"
         offset="0.18"
         id="stop6405" />
         <stop
         style="stop-color:#EBCB8B;stop-opacity:0.78;"
         offset="0.60"
         id="stop6406" />
         <stop 
         style="stop-color:#A3BE8C;stop-opacity:0.78;"
         offset="0.79"
         id="stop6407" />
         </linearGradient><linearGradient
       inkscape:collect="always"
       xlink:href="#linearGradient6399"
       id="linearGradient6676"
       x1="62.337189"
       y1="142.05164"
       x2="140.06519"
       y2="142.05164"
       gradientUnits="userSpaceOnUse" /><linearGradient
       inkscape:collect="always"
       xlink:href="#linearGradient6399"
       id="linearGradient8246"
       gradientUnits="userSpaceOnUse"
       x1="62.337189"
       y1="142.05164"
       x2="140.06519"
       y2="142.05164" /><linearGradient
       inkscape:collect="always"
       xlink:href="#linearGradient6399"
       id="linearGradient8248"
       gradientUnits="userSpaceOnUse"
       x1="62.337189"
       y1="142.05164"
       x2="140.06519"
       y2="142.05164" /><linearGradient
       inkscape:collect="always"
       xlink:href="#linearGradient6399"
       id="linearGradient8250"
       gradientUnits="userSpaceOnUse"
       x1="62.337189"
       y1="142.05164"
       x2="140.06519"
       y2="142.05164" /></defs><g
     inkscape:label="Layer 1"
     inkscape:groupmode="layer"
     id="layer1"
     transform="translate(-62.33719,-102.59723)"><g
       id="g6668"
       style="fill:url(#linearGradient6676);fill-opacity:1"><path
         id="rect6582"
         d="m 73.285242,124.39586 60.791268,19.76543 a 8.5704745,8.3615703 62.304332 0 1 5.6333,10.73183 l -0.12244,0.41079 a 8.5704745,8.3615703 62.304332 0 1 -10.47024,5.49599 L 68.325862,141.03447 a 8.5704745,8.3615703 62.304332 0 1 -5.633301,-10.73183 l 0.122442,-0.41079 a 8.5704745,8.3615703 62.304332 0 1 10.470239,-5.49599 z"
         style="font-variation-settings:normal;opacity:1;vector-effect:none;fill:url(#linearGradient8246);fill-opacity:1;stroke:none;stroke-width:0.319208;stroke-linecap:butt;stroke-linejoin:miter;stroke-miterlimit:4;stroke-dasharray:none;stroke-dashoffset:0;stroke-opacity:1;-inkscape-stroke:none;stop-color:#000000;stop-opacity:1" /><path
         id="rect6582-6"
         d="m 128.85904,124.30609 -42.559328,47.69648 a 8.3615703,8.5704745 86.035496 0 1 -12.09148,0.83799 l -0.32678,-0.27741 a 8.3615703,8.5704745 86.035496 0 1 -0.81757,-11.79676 l 42.559328,-47.69647 a 8.3615703,8.5704745 86.035496 0 1 12.09149,-0.838 l 0.32677,0.27741 a 8.3615703,8.5704745 86.035496 0 1 0.81757,11.79676 z"
         style="font-variation-settings:normal;vector-effect:none;fill:url(#linearGradient8248);fill-opacity:1;stroke:none;stroke-width:0.319208;stroke-linecap:butt;stroke-linejoin:miter;stroke-miterlimit:4;stroke-dasharray:none;stroke-dashoffset:0;stroke-opacity:1;-inkscape-stroke:none;stop-color:#000000" /><path
         id="rect6582-6-1"
         d="m 100.83794,108.72581 16.54403,61.74581 a 8.3615703,8.5704745 29.293735 0 1 -5.9304,10.57055 l -0.41118,0.12113 a 8.3615703,8.5704745 29.293735 0 1 -10.3129,-5.78585 l -16.544028,-61.7458 a 8.3615703,8.5704745 29.293735 0 1 5.93039,-10.57057 l 0.41119,-0.12111 a 8.3615703,8.5704745 29.293735 0 1 10.312898,5.78584 z"
         style="font-variation-settings:normal;vector-effect:none;fill:url(#linearGradient8250);fill-opacity:1;stroke:none;stroke-width:0.319208;stroke-linecap:butt;stroke-linejoin:miter;stroke-miterlimit:4;stroke-dasharray:none;stroke-dashoffset:0;stroke-opacity:1;-inkscape-stroke:none;stop-color:#000000" /></g></g></svg>
